<svg width="33" height="32" viewBox="0 0 33 32" fill="none" xmlns="http://www.w3.org/2000/svg">
<g clip-path="url(#clip0_375_718)">
<path d="M32.5 16.0004C32.5 24.8373 25.3365 32.0008 16.4996 32.0008C7.66346 32 0.5 24.8365 0.5 16.0004C0.5 7.16346 7.66346 0 16.5004 0C25.3373 0 32.5008 7.16346 32.5008 16.0004H32.5Z" fill="#C2F6F3"/>
<path d="M23.3957 9.22021H9.60512C8.24249 9.22021 7.13757 10.3251 7.13757 11.687V20.3121C7.13757 21.6747 8.24249 22.7788 9.60512 22.7788H23.3957C24.7575 22.7788 25.8624 21.6747 25.8624 20.3121V11.687C25.8624 10.3251 24.7575 9.22021 23.3957 9.22021ZM18.7151 16.5955L14.8801 18.5122C14.4371 18.7336 13.9169 18.4123 13.9169 17.9178V14.0844C13.9169 13.59 14.4379 13.2686 14.8801 13.4893L18.7151 15.406C19.2047 15.6508 19.2047 16.3507 18.7151 16.5955Z" fill="#062052"/>
</g>
<defs>
<clipPath id="clip0_375_718">
<rect width="32" height="32" fill="white" transform="translate(0.5)"/>
</clipPath>
</defs>
</svg>
