<svg width="9" height="16" viewBox="0 0 9 16" fill="none" xmlns="http://www.w3.org/2000/svg">
<path d="M8.83594 7.85938C8.83594 8.05208 8.79688 8.23177 8.71875 8.39844C8.64583 8.5599 8.52865 8.71875 8.36719 8.875L2.46875 14.6562C2.22917 14.8958 1.9375 15.0156 1.59375 15.0156C1.36979 15.0156 1.16146 14.9583 0.96875 14.8438C0.776042 14.7344 0.622396 14.5859 0.507812 14.3984C0.398438 14.2109 0.34375 14.0026 0.34375 13.7734C0.34375 13.4297 0.476562 13.1224 0.742188 12.8516L5.89062 7.85156L0.742188 2.85938C0.476562 2.59896 0.34375 2.29427 0.34375 1.94531C0.34375 1.71615 0.398438 1.50781 0.507812 1.32031C0.622396 1.13281 0.776042 0.984375 0.96875 0.875C1.16146 0.760417 1.36979 0.703125 1.59375 0.703125C1.9375 0.703125 2.22917 0.820312 2.46875 1.05469L8.36719 6.83594C8.52865 6.99219 8.64583 7.15365 8.71875 7.32031C8.79167 7.48177 8.83073 7.66146 8.83594 7.85938Z" fill="#9063CD"/>
</svg>
