<svg width="32" height="32" viewBox="0 0 32 32" fill="none" xmlns="http://www.w3.org/2000/svg">
<g clip-path="url(#clip0_873_770)">
<circle cx="16" cy="16" r="12" fill="#062052"/>
<path d="M27.3067 4.69333C24.4098 1.79649 20.4126 0 15.9888 0C11.5649 0 7.59018 1.79649 4.69333 4.69333C1.79649 7.59018 0 11.5874 0 16.0112C0 24.8589 7.16351 32.0225 16.0112 32.0225C20.4351 32.0225 24.4323 30.226 27.3291 27.3291C30.226 24.4323 32.0225 20.4351 32.0225 16.0112C32.0225 11.5874 30.226 7.59018 27.3291 4.69333H27.3067ZM20.4575 9.72351H18.3467C17.6056 9.72351 17.4484 10.0154 17.4484 10.8014V12.6653H20.4575L20.1656 15.9214H17.4484V25.6674H13.5635V15.9663H11.5425V12.6653H13.5635V10.0604C13.5635 7.61263 14.866 6.35509 17.7628 6.35509H20.4575V9.74597V9.72351Z" fill="#C2F6F3"/>
</g>
<defs>
<clipPath id="clip0_873_770">
<rect width="32" height="32" fill="white"/>
</clipPath>
</defs>
</svg>
