<svg width="35" height="34" viewBox="0 0 35 34" fill="none" xmlns="http://www.w3.org/2000/svg">
<g clip-path="url(#clip0_375_703)">
<path d="M34.5 17.0004C34.5 26.3897 26.8888 34.0009 17.4996 34.0009C8.11117 34 0.5 26.3888 0.5 17.0004C0.5 7.61117 8.11117 0 17.5004 0C26.8897 0 34.5009 7.61117 34.5009 17.0004H34.5Z" fill="#C2F6F3"/>
<path d="M22.1125 8.08276H12.8875C10.5105 8.08276 8.58264 10.0106 8.58264 12.3876V21.6126C8.58264 23.9896 10.5105 25.9175 12.8875 25.9175H22.1125C24.4895 25.9175 26.4173 23.9896 26.4173 21.6126V12.3876C26.4173 10.0106 24.4895 8.08276 22.1125 8.08276ZM24.8797 21.3054C24.8797 23.0031 23.5021 24.3807 21.8044 24.3807H13.1947C11.497 24.3807 10.1194 23.0031 10.1194 21.3054V12.6957C10.1194 10.998 11.497 9.6204 13.1947 9.6204H21.8044C23.5021 9.6204 24.8797 10.998 24.8797 12.6957V21.3054Z" fill="#062052"/>
<path d="M17.509 12.3875C14.9634 12.3875 12.897 14.4539 12.897 16.9995C12.897 19.5451 14.9634 21.6116 17.509 21.6116C20.0546 21.6116 22.1211 19.5451 22.1211 16.9995C22.1211 14.4539 20.0546 12.3875 17.509 12.3875ZM17.509 20.0748C15.8148 20.0748 14.4338 18.6937 14.4338 16.9995C14.4338 15.3053 15.8148 13.9242 17.509 13.9242C19.2033 13.9242 20.5843 15.3053 20.5843 16.9995C20.5843 18.6937 19.2033 20.0748 17.509 20.0748Z" fill="#062052"/>
<path d="M22.4291 13.0028C21.9209 13.0028 21.5067 12.5886 21.5067 12.0804C21.5067 11.5721 21.9209 11.158 22.4291 11.158C22.9374 11.158 23.3515 11.5721 23.3515 12.0804C23.3515 12.5886 22.9374 13.0028 22.4291 13.0028Z" fill="#062052"/>
</g>
<defs>
<clipPath id="clip0_375_703">
<rect width="34" height="34" fill="white" transform="translate(0.5)"/>
</clipPath>
</defs>
</svg>
