<svg width="33" height="32" viewBox="0 0 33 32" fill="none" xmlns="http://www.w3.org/2000/svg">
<g clip-path="url(#clip0_375_712)">
<path d="M32.5 16.0004C32.5 24.8373 25.3365 32.0008 16.4996 32.0008C7.66346 32 0.5 24.8365 0.5 16.0004C0.5 7.16346 7.66346 0 16.5004 0C25.3373 0 32.5008 7.16346 32.5008 16.0004H32.5Z" fill="#C2F6F3"/>
<path d="M10.8333 11.7225C11.9715 11.7225 12.8942 10.7999 12.8942 9.66168C12.8942 8.52351 11.9715 7.60083 10.8333 7.60083C9.69514 7.60083 8.77246 8.52351 8.77246 9.66168C8.77246 10.7999 9.69514 11.7225 10.8333 11.7225Z" fill="#062052"/>
<path d="M12.3964 13.0964H9.2693C9.18435 13.0964 9.11548 13.1653 9.11548 13.2503V23.2461C9.11548 23.331 9.18435 23.3999 9.2693 23.3999H12.3964C12.4814 23.3999 12.5502 23.331 12.5502 23.2461V13.2503C12.5502 13.1653 12.4814 13.0964 12.3964 13.0964Z" fill="#062052"/>
<path d="M24.2285 16.8741V22.7128C24.2285 23.0905 23.9193 23.3998 23.5416 23.3998H21.4807C21.103 23.3998 20.7938 23.0905 20.7938 22.7128V17.9042C20.7938 16.9563 20.0247 16.1872 19.0768 16.1872C18.1289 16.1872 17.3598 16.9563 17.3598 17.9042V22.7128C17.3598 23.0905 17.0506 23.3998 16.6729 23.3998H14.612C14.2343 23.3998 13.925 23.0905 13.925 22.7128V13.7825C13.925 13.4048 14.2343 13.0955 14.612 13.0955H16.6729C17.0506 13.0955 17.3598 13.4048 17.3598 13.7825V14.2222C18.0468 13.3323 19.1839 12.7524 20.4507 12.7524C22.3464 12.7524 24.2285 14.1263 24.2285 16.8741Z" fill="#062052"/>
</g>
<defs>
<clipPath id="clip0_375_712">
<rect width="32" height="32" fill="white" transform="translate(0.5)"/>
</clipPath>
</defs>
</svg>
