<svg width="33" height="32" viewBox="0 0 33 32" fill="none" xmlns="http://www.w3.org/2000/svg">
<g clip-path="url(#clip0_375_708)">
<path d="M32.5 16.0004C32.5 24.8373 25.3365 32.0008 16.4996 32.0008C7.66346 32 0.5 24.8365 0.5 16.0004C0.5 7.16346 7.66346 0 16.5004 0C25.3373 0 32.5008 7.16346 32.5008 16.0004H32.5Z" fill="#C2F6F3"/>
<path d="M16.4424 5.74763C11.4976 5.90789 7.41295 9.91283 7.16571 14.8544C7.07632 16.6358 7.46932 18.3197 8.23359 19.7814L7.16007 24.5893C7.11498 24.8067 7.30745 24.9992 7.52489 24.9541L12.3327 23.8806H12.336C13.788 24.6392 15.4542 25.0322 17.2227 24.95C22.1562 24.7213 26.174 20.6681 26.3649 15.733C26.5807 10.144 22.025 5.56643 16.4432 5.74763H16.4424ZM16.7621 22.973C15.364 22.973 14.0546 22.5952 12.9287 21.9357C12.8224 21.8761 12.7201 21.8133 12.6202 21.7464L9.5487 22.5646L10.3669 19.4931C9.59138 18.3004 9.1412 16.879 9.1412 15.3513C9.1412 11.1498 12.5607 7.73037 16.7621 7.73037C20.9635 7.73037 24.383 11.1498 24.383 15.3513C24.383 19.5527 20.9635 22.9721 16.7621 22.9721V22.973Z" fill="#062052"/>
<path d="M21.2817 18.7064C21.1488 18.9061 21.0095 19.0922 20.7864 19.3144C20.2984 19.8025 19.6203 20.0489 18.9325 19.9789C17.7004 19.8524 15.9496 19.1719 14.4444 17.67C12.9392 16.1648 12.2587 14.414 12.1355 13.1818C12.0655 12.4941 12.3119 11.8168 12.7999 11.3279C13.0222 11.1057 13.2082 10.9655 13.4079 10.8294C13.7768 10.5806 14.2785 10.7465 14.4178 11.1653L14.9228 12.6801C15.0621 13.0956 14.9993 13.3582 14.8197 13.5338L14.4178 13.9396C14.2181 14.1394 14.1851 14.4478 14.3381 14.687C14.5604 15.0357 14.9792 15.5938 15.7499 16.3645C16.5206 17.1352 17.0787 17.554 17.4274 17.7763C17.6666 17.9293 17.9758 17.8963 18.1747 17.6965L18.5806 17.2947C18.757 17.1151 19.0195 17.0523 19.4343 17.1916L20.9491 17.6965C21.3679 17.8359 21.5338 18.3376 21.2817 18.7064Z" fill="#062052"/>
</g>
<defs>
<clipPath id="clip0_375_708">
<rect width="32" height="32" fill="white" transform="translate(0.5)"/>
</clipPath>
</defs>
</svg>
